<mxfile host="Electron" agent="Mozilla/5.0 (Windows NT 10.0; Win64; x64) AppleWebKit/537.36 (KHTML, like Gecko) draw.io/26.2.2 Chrome/134.0.6998.178 Electron/35.1.2 Safari/537.36" version="26.2.2">
  <diagram id="R2lEEEUBdFMjLlhIrx00" name="Page-1">
    <mxGraphModel dx="2548" dy="1404" grid="1" gridSize="10" guides="1" tooltips="1" connect="1" arrows="1" fold="1" page="1" pageScale="1" pageWidth="850" pageHeight="1100" math="0" shadow="0" extFonts="Permanent Marker^https://fonts.googleapis.com/css?family=Permanent+Marker">
      <root>
        <mxCell id="0" />
        <mxCell id="1" parent="0" />
        <mxCell id="Nikil5k3IJ3DwkQnjK75-1" value="USUARIO" style="rounded=0;whiteSpace=wrap;html=1;" vertex="1" parent="1">
          <mxGeometry x="80" y="120" width="120" height="40" as="geometry" />
        </mxCell>
        <mxCell id="Nikil5k3IJ3DwkQnjK75-2" value="Es un" style="triangle;whiteSpace=wrap;html=1;rotation=90;" vertex="1" parent="1">
          <mxGeometry x="112.5" y="210" width="55" height="60" as="geometry" />
        </mxCell>
        <mxCell id="Nikil5k3IJ3DwkQnjK75-3" value="EMPLEADO" style="rounded=0;whiteSpace=wrap;html=1;" vertex="1" parent="1">
          <mxGeometry x="-220" y="320" width="120" height="40" as="geometry" />
        </mxCell>
        <mxCell id="Nikil5k3IJ3DwkQnjK75-4" value="CLIENTE" style="rounded=0;whiteSpace=wrap;html=1;" vertex="1" parent="1">
          <mxGeometry x="360" y="320" width="120" height="40" as="geometry" />
        </mxCell>
        <mxCell id="Nikil5k3IJ3DwkQnjK75-5" value="" style="endArrow=none;html=1;rounded=0;entryX=0.5;entryY=1;entryDx=0;entryDy=0;exitX=0.5;exitY=0;exitDx=0;exitDy=0;" edge="1" parent="1" source="Nikil5k3IJ3DwkQnjK75-3" target="Nikil5k3IJ3DwkQnjK75-2">
          <mxGeometry width="50" height="50" relative="1" as="geometry">
            <mxPoint x="340" y="540" as="sourcePoint" />
            <mxPoint x="390" y="490" as="targetPoint" />
          </mxGeometry>
        </mxCell>
        <mxCell id="Nikil5k3IJ3DwkQnjK75-6" value="" style="endArrow=none;html=1;rounded=0;entryX=0.5;entryY=0;entryDx=0;entryDy=0;exitX=0.5;exitY=0;exitDx=0;exitDy=0;" edge="1" parent="1" source="Nikil5k3IJ3DwkQnjK75-4" target="Nikil5k3IJ3DwkQnjK75-2">
          <mxGeometry width="50" height="50" relative="1" as="geometry">
            <mxPoint x="30" y="330" as="sourcePoint" />
            <mxPoint x="135" y="250" as="targetPoint" />
          </mxGeometry>
        </mxCell>
        <mxCell id="Nikil5k3IJ3DwkQnjK75-7" value="" style="endArrow=none;html=1;rounded=0;entryX=0.5;entryY=1;entryDx=0;entryDy=0;" edge="1" parent="1" target="Nikil5k3IJ3DwkQnjK75-1">
          <mxGeometry width="50" height="50" relative="1" as="geometry">
            <mxPoint x="140" y="210" as="sourcePoint" />
            <mxPoint x="180" y="160" as="targetPoint" />
          </mxGeometry>
        </mxCell>
        <mxCell id="Nikil5k3IJ3DwkQnjK75-9" value="TARIFA" style="rounded=0;whiteSpace=wrap;html=1;" vertex="1" parent="1">
          <mxGeometry x="70" y="510" width="120" height="40" as="geometry" />
        </mxCell>
        <mxCell id="Nikil5k3IJ3DwkQnjK75-11" value="RUTINA" style="rounded=0;whiteSpace=wrap;html=1;" vertex="1" parent="1">
          <mxGeometry x="600" y="120" width="120" height="40" as="geometry" />
        </mxCell>
        <mxCell id="Nikil5k3IJ3DwkQnjK75-12" value="tiene" style="rhombus;whiteSpace=wrap;html=1;" vertex="1" parent="1">
          <mxGeometry x="-90" y="440" width="80" height="50" as="geometry" />
        </mxCell>
        <mxCell id="Nikil5k3IJ3DwkQnjK75-13" value="" style="endArrow=none;html=1;rounded=0;entryX=0.5;entryY=1;entryDx=0;entryDy=0;exitX=0;exitY=0.5;exitDx=0;exitDy=0;" edge="1" parent="1" source="Nikil5k3IJ3DwkQnjK75-12" target="Nikil5k3IJ3DwkQnjK75-3">
          <mxGeometry width="50" height="50" relative="1" as="geometry">
            <mxPoint x="-80" y="450" as="sourcePoint" />
            <mxPoint x="-30" y="400" as="targetPoint" />
          </mxGeometry>
        </mxCell>
        <mxCell id="Nikil5k3IJ3DwkQnjK75-15" value="" style="endArrow=none;html=1;rounded=0;entryX=1;entryY=0.5;entryDx=0;entryDy=0;exitX=0;exitY=0.5;exitDx=0;exitDy=0;" edge="1" parent="1" source="Nikil5k3IJ3DwkQnjK75-9" target="Nikil5k3IJ3DwkQnjK75-12">
          <mxGeometry width="50" height="50" relative="1" as="geometry">
            <mxPoint x="80" y="510" as="sourcePoint" />
            <mxPoint x="50" y="460" as="targetPoint" />
          </mxGeometry>
        </mxCell>
        <mxCell id="Nikil5k3IJ3DwkQnjK75-16" value="" style="endArrow=none;html=1;rounded=0;exitX=1;exitY=0.5;exitDx=0;exitDy=0;entryX=0;entryY=0.5;entryDx=0;entryDy=0;" edge="1" parent="1" source="Nikil5k3IJ3DwkQnjK75-9" target="Nikil5k3IJ3DwkQnjK75-19">
          <mxGeometry width="50" height="50" relative="1" as="geometry">
            <mxPoint x="340" y="540" as="sourcePoint" />
            <mxPoint x="370" y="510" as="targetPoint" />
          </mxGeometry>
        </mxCell>
        <mxCell id="Nikil5k3IJ3DwkQnjK75-18" value="" style="endArrow=none;html=1;rounded=0;entryX=0.5;entryY=1;entryDx=0;entryDy=0;exitX=1;exitY=0.5;exitDx=0;exitDy=0;" edge="1" parent="1" source="Nikil5k3IJ3DwkQnjK75-19" target="Nikil5k3IJ3DwkQnjK75-4">
          <mxGeometry width="50" height="50" relative="1" as="geometry">
            <mxPoint x="250" y="440" as="sourcePoint" />
            <mxPoint x="220" y="390" as="targetPoint" />
          </mxGeometry>
        </mxCell>
        <mxCell id="Nikil5k3IJ3DwkQnjK75-19" value="Contrata" style="rhombus;whiteSpace=wrap;html=1;" vertex="1" parent="1">
          <mxGeometry x="270" y="440" width="80" height="50" as="geometry" />
        </mxCell>
        <mxCell id="Nikil5k3IJ3DwkQnjK75-21" value="(1,1)" style="text;html=1;align=center;verticalAlign=middle;whiteSpace=wrap;rounded=0;" vertex="1" parent="1">
          <mxGeometry x="-130" y="370" width="60" height="30" as="geometry" />
        </mxCell>
        <mxCell id="Nikil5k3IJ3DwkQnjK75-22" value="(1,N)" style="text;html=1;align=center;verticalAlign=middle;whiteSpace=wrap;rounded=0;" vertex="1" parent="1">
          <mxGeometry x="30" y="480" width="60" height="30" as="geometry" />
        </mxCell>
        <mxCell id="Nikil5k3IJ3DwkQnjK75-23" value="(0,N)" style="text;html=1;align=center;verticalAlign=middle;whiteSpace=wrap;rounded=0;" vertex="1" parent="1">
          <mxGeometry x="167.5" y="480" width="60" height="30" as="geometry" />
        </mxCell>
        <mxCell id="Nikil5k3IJ3DwkQnjK75-24" value="(0,N)" style="text;html=1;align=center;verticalAlign=middle;whiteSpace=wrap;rounded=0;" vertex="1" parent="1">
          <mxGeometry x="320" y="370" width="60" height="30" as="geometry" />
        </mxCell>
        <mxCell id="Nikil5k3IJ3DwkQnjK75-26" value="REVISION" style="rounded=0;whiteSpace=wrap;html=1;" vertex="1" parent="1">
          <mxGeometry x="70" y="640" width="120" height="40" as="geometry" />
        </mxCell>
        <mxCell id="Nikil5k3IJ3DwkQnjK75-27" value="hace" style="rhombus;whiteSpace=wrap;html=1;" vertex="1" parent="1">
          <mxGeometry x="-90" y="635" width="80" height="50" as="geometry" />
        </mxCell>
        <mxCell id="Nikil5k3IJ3DwkQnjK75-28" value="" style="endArrow=none;html=1;rounded=0;entryX=0.5;entryY=1;entryDx=0;entryDy=0;exitX=0;exitY=0.5;exitDx=0;exitDy=0;" edge="1" parent="1" source="Nikil5k3IJ3DwkQnjK75-27" target="Nikil5k3IJ3DwkQnjK75-3">
          <mxGeometry width="50" height="50" relative="1" as="geometry">
            <mxPoint x="340" y="540" as="sourcePoint" />
            <mxPoint x="390" y="490" as="targetPoint" />
          </mxGeometry>
        </mxCell>
        <mxCell id="Nikil5k3IJ3DwkQnjK75-29" value="" style="endArrow=none;html=1;rounded=0;entryX=1;entryY=0.5;entryDx=0;entryDy=0;exitX=0;exitY=0.5;exitDx=0;exitDy=0;" edge="1" parent="1" source="Nikil5k3IJ3DwkQnjK75-26" target="Nikil5k3IJ3DwkQnjK75-27">
          <mxGeometry width="50" height="50" relative="1" as="geometry">
            <mxPoint x="-80" y="655" as="sourcePoint" />
            <mxPoint x="-150" y="370" as="targetPoint" />
          </mxGeometry>
        </mxCell>
        <mxCell id="Nikil5k3IJ3DwkQnjK75-30" value="tiene" style="rhombus;whiteSpace=wrap;html=1;" vertex="1" parent="1">
          <mxGeometry x="280" y="635" width="80" height="50" as="geometry" />
        </mxCell>
        <mxCell id="Nikil5k3IJ3DwkQnjK75-31" value="" style="endArrow=none;html=1;rounded=0;entryX=1;entryY=0.5;entryDx=0;entryDy=0;exitX=0;exitY=0.5;exitDx=0;exitDy=0;" edge="1" parent="1" source="Nikil5k3IJ3DwkQnjK75-30" target="Nikil5k3IJ3DwkQnjK75-26">
          <mxGeometry width="50" height="50" relative="1" as="geometry">
            <mxPoint x="795" y="580" as="sourcePoint" />
            <mxPoint x="227.5" y="710" as="targetPoint" />
          </mxGeometry>
        </mxCell>
        <mxCell id="Nikil5k3IJ3DwkQnjK75-32" value="" style="endArrow=none;html=1;rounded=0;entryX=1;entryY=0.5;entryDx=0;entryDy=0;exitX=0.5;exitY=1;exitDx=0;exitDy=0;" edge="1" parent="1" target="Nikil5k3IJ3DwkQnjK75-30" source="Nikil5k3IJ3DwkQnjK75-4">
          <mxGeometry width="50" height="50" relative="1" as="geometry">
            <mxPoint x="447.5" y="410" as="sourcePoint" />
            <mxPoint x="305" y="410" as="targetPoint" />
          </mxGeometry>
        </mxCell>
        <mxCell id="Nikil5k3IJ3DwkQnjK75-33" value="(1,1)" style="text;html=1;align=center;verticalAlign=middle;whiteSpace=wrap;rounded=0;" vertex="1" parent="1">
          <mxGeometry x="-130" y="500" width="60" height="30" as="geometry" />
        </mxCell>
        <mxCell id="Nikil5k3IJ3DwkQnjK75-34" value="(0,N)" style="text;html=1;align=center;verticalAlign=middle;whiteSpace=wrap;rounded=0;" vertex="1" parent="1">
          <mxGeometry x="10" y="630" width="60" height="30" as="geometry" />
        </mxCell>
        <mxCell id="Nikil5k3IJ3DwkQnjK75-35" value="(0,N)" style="text;html=1;align=center;verticalAlign=middle;whiteSpace=wrap;rounded=0;" vertex="1" parent="1">
          <mxGeometry x="210" y="630" width="60" height="30" as="geometry" />
        </mxCell>
        <mxCell id="Nikil5k3IJ3DwkQnjK75-36" value="(1,1)" style="text;html=1;align=center;verticalAlign=middle;whiteSpace=wrap;rounded=0;" vertex="1" parent="1">
          <mxGeometry x="350" y="450" width="60" height="30" as="geometry" />
        </mxCell>
        <mxCell id="Nikil5k3IJ3DwkQnjK75-38" value="DIETA" style="rounded=0;whiteSpace=wrap;html=1;" vertex="1" parent="1">
          <mxGeometry x="70" y="960" width="120" height="40" as="geometry" />
        </mxCell>
        <mxCell id="Nikil5k3IJ3DwkQnjK75-39" value="crea" style="rhombus;whiteSpace=wrap;html=1;" vertex="1" parent="1">
          <mxGeometry x="-120" y="955" width="80" height="50" as="geometry" />
        </mxCell>
        <mxCell id="Nikil5k3IJ3DwkQnjK75-40" value="tiene" style="rhombus;whiteSpace=wrap;html=1;" vertex="1" parent="1">
          <mxGeometry x="330" y="955" width="80" height="50" as="geometry" />
        </mxCell>
        <mxCell id="Nikil5k3IJ3DwkQnjK75-41" value="" style="endArrow=none;html=1;rounded=0;entryX=0.5;entryY=1;entryDx=0;entryDy=0;exitX=0;exitY=0.5;exitDx=0;exitDy=0;" edge="1" parent="1" source="Nikil5k3IJ3DwkQnjK75-39" target="Nikil5k3IJ3DwkQnjK75-3">
          <mxGeometry width="50" height="50" relative="1" as="geometry">
            <mxPoint x="80" y="530" as="sourcePoint" />
            <mxPoint x="130" y="480" as="targetPoint" />
          </mxGeometry>
        </mxCell>
        <mxCell id="Nikil5k3IJ3DwkQnjK75-42" value="" style="endArrow=none;html=1;rounded=0;entryX=1;entryY=0.5;entryDx=0;entryDy=0;exitX=0.5;exitY=1;exitDx=0;exitDy=0;" edge="1" parent="1" source="Nikil5k3IJ3DwkQnjK75-4" target="Nikil5k3IJ3DwkQnjK75-40">
          <mxGeometry width="50" height="50" relative="1" as="geometry">
            <mxPoint x="-80" y="905" as="sourcePoint" />
            <mxPoint x="-150" y="370" as="targetPoint" />
          </mxGeometry>
        </mxCell>
        <mxCell id="Nikil5k3IJ3DwkQnjK75-44" value="" style="endArrow=none;html=1;rounded=0;entryX=0;entryY=0.5;entryDx=0;entryDy=0;exitX=1;exitY=0.5;exitDx=0;exitDy=0;" edge="1" parent="1" source="Nikil5k3IJ3DwkQnjK75-39" target="Nikil5k3IJ3DwkQnjK75-38">
          <mxGeometry width="50" height="50" relative="1" as="geometry">
            <mxPoint x="-230" y="1010" as="sourcePoint" />
            <mxPoint x="-180" y="960" as="targetPoint" />
          </mxGeometry>
        </mxCell>
        <mxCell id="Nikil5k3IJ3DwkQnjK75-45" value="" style="endArrow=none;html=1;rounded=0;exitX=1;exitY=0.5;exitDx=0;exitDy=0;" edge="1" parent="1" source="Nikil5k3IJ3DwkQnjK75-38" target="Nikil5k3IJ3DwkQnjK75-40">
          <mxGeometry width="50" height="50" relative="1" as="geometry">
            <mxPoint x="-30" y="990" as="sourcePoint" />
            <mxPoint x="80" y="990" as="targetPoint" />
          </mxGeometry>
        </mxCell>
        <mxCell id="Nikil5k3IJ3DwkQnjK75-46" value="crea" style="rhombus;whiteSpace=wrap;html=1;" vertex="1" parent="1">
          <mxGeometry x="370" y="115" width="80" height="50" as="geometry" />
        </mxCell>
        <mxCell id="Nikil5k3IJ3DwkQnjK75-47" value="" style="endArrow=none;html=1;rounded=0;entryX=0;entryY=0.5;entryDx=0;entryDy=0;exitX=1;exitY=0.5;exitDx=0;exitDy=0;" edge="1" parent="1" source="Nikil5k3IJ3DwkQnjK75-1" target="Nikil5k3IJ3DwkQnjK75-46">
          <mxGeometry width="50" height="50" relative="1" as="geometry">
            <mxPoint x="260" y="210" as="sourcePoint" />
            <mxPoint x="310" y="160" as="targetPoint" />
          </mxGeometry>
        </mxCell>
        <mxCell id="Nikil5k3IJ3DwkQnjK75-48" value="" style="endArrow=none;html=1;rounded=0;entryX=0;entryY=0.5;entryDx=0;entryDy=0;exitX=1;exitY=0.5;exitDx=0;exitDy=0;" edge="1" parent="1" source="Nikil5k3IJ3DwkQnjK75-46" target="Nikil5k3IJ3DwkQnjK75-11">
          <mxGeometry width="50" height="50" relative="1" as="geometry">
            <mxPoint x="210" y="150" as="sourcePoint" />
            <mxPoint x="380" y="150" as="targetPoint" />
          </mxGeometry>
        </mxCell>
        <mxCell id="Nikil5k3IJ3DwkQnjK75-50" value="asigna" style="rhombus;whiteSpace=wrap;html=1;" vertex="1" parent="1">
          <mxGeometry x="620" y="260" width="80" height="50" as="geometry" />
        </mxCell>
        <mxCell id="Nikil5k3IJ3DwkQnjK75-51" value="" style="endArrow=none;html=1;rounded=0;entryX=0;entryY=0.5;entryDx=0;entryDy=0;exitX=1;exitY=0.5;exitDx=0;exitDy=0;" edge="1" parent="1" source="Nikil5k3IJ3DwkQnjK75-4" target="Nikil5k3IJ3DwkQnjK75-50">
          <mxGeometry width="50" height="50" relative="1" as="geometry">
            <mxPoint x="550" y="460" as="sourcePoint" />
            <mxPoint x="600" y="410" as="targetPoint" />
          </mxGeometry>
        </mxCell>
        <mxCell id="Nikil5k3IJ3DwkQnjK75-56" value="" style="endArrow=none;html=1;rounded=0;exitX=0.5;exitY=0;exitDx=0;exitDy=0;entryX=0.5;entryY=1;entryDx=0;entryDy=0;" edge="1" parent="1" source="Nikil5k3IJ3DwkQnjK75-50" target="Nikil5k3IJ3DwkQnjK75-11">
          <mxGeometry width="50" height="50" relative="1" as="geometry">
            <mxPoint x="490" y="350" as="sourcePoint" />
            <mxPoint x="660" y="170" as="targetPoint" />
          </mxGeometry>
        </mxCell>
        <mxCell id="Nikil5k3IJ3DwkQnjK75-57" value="(1,1)" style="text;html=1;align=center;verticalAlign=middle;whiteSpace=wrap;rounded=0;" vertex="1" parent="1">
          <mxGeometry x="-150" y="630" width="60" height="30" as="geometry" />
        </mxCell>
        <mxCell id="Nikil5k3IJ3DwkQnjK75-58" value="(0,N)" style="text;html=1;align=center;verticalAlign=middle;whiteSpace=wrap;rounded=0;" vertex="1" parent="1">
          <mxGeometry y="950" width="60" height="30" as="geometry" />
        </mxCell>
        <mxCell id="Nikil5k3IJ3DwkQnjK75-59" value="(0,N)" style="text;html=1;align=center;verticalAlign=middle;whiteSpace=wrap;rounded=0;" vertex="1" parent="1">
          <mxGeometry x="240" y="950" width="60" height="30" as="geometry" />
        </mxCell>
        <mxCell id="Nikil5k3IJ3DwkQnjK75-60" value="(1,1)" style="text;html=1;align=center;verticalAlign=middle;whiteSpace=wrap;rounded=0;" vertex="1" parent="1">
          <mxGeometry x="420" y="370" width="60" height="30" as="geometry" />
        </mxCell>
        <mxCell id="Nikil5k3IJ3DwkQnjK75-61" value="(0,N)" style="text;html=1;align=center;verticalAlign=middle;whiteSpace=wrap;rounded=0;" vertex="1" parent="1">
          <mxGeometry x="530" y="110" width="60" height="30" as="geometry" />
        </mxCell>
        <mxCell id="Nikil5k3IJ3DwkQnjK75-62" value="(1,1)" style="text;html=1;align=center;verticalAlign=middle;whiteSpace=wrap;rounded=0;" vertex="1" parent="1">
          <mxGeometry x="200" y="110" width="60" height="30" as="geometry" />
        </mxCell>
        <mxCell id="Nikil5k3IJ3DwkQnjK75-63" value="(0,N)" style="text;html=1;align=center;verticalAlign=middle;whiteSpace=wrap;rounded=0;" vertex="1" parent="1">
          <mxGeometry x="660" y="180" width="60" height="30" as="geometry" />
        </mxCell>
        <mxCell id="Nikil5k3IJ3DwkQnjK75-64" value="(1,N)" style="text;html=1;align=center;verticalAlign=middle;whiteSpace=wrap;rounded=0;" vertex="1" parent="1">
          <mxGeometry x="500" y="330" width="60" height="30" as="geometry" />
        </mxCell>
        <mxCell id="Nikil5k3IJ3DwkQnjK75-65" value="" style="endArrow=none;html=1;rounded=0;exitX=0;exitY=0;exitDx=0;exitDy=0;" edge="1" parent="1" source="Nikil5k3IJ3DwkQnjK75-1">
          <mxGeometry width="50" height="50" relative="1" as="geometry">
            <mxPoint x="70" y="110" as="sourcePoint" />
            <mxPoint x="80" y="20" as="targetPoint" />
          </mxGeometry>
        </mxCell>
        <mxCell id="Nikil5k3IJ3DwkQnjK75-66" value="Nombre" style="text;html=1;align=center;verticalAlign=middle;whiteSpace=wrap;rounded=0;" vertex="1" parent="1">
          <mxGeometry x="10" y="39" width="60" height="30" as="geometry" />
        </mxCell>
        <mxCell id="Nikil5k3IJ3DwkQnjK75-67" value="IdUsuario" style="text;html=1;align=center;verticalAlign=middle;whiteSpace=wrap;rounded=0;" vertex="1" parent="1">
          <mxGeometry x="10" y="9" width="60" height="30" as="geometry" />
        </mxCell>
        <mxCell id="Nikil5k3IJ3DwkQnjK75-68" value="Apellidos" style="text;html=1;align=center;verticalAlign=middle;whiteSpace=wrap;rounded=0;" vertex="1" parent="1">
          <mxGeometry x="10" y="69" width="60" height="30" as="geometry" />
        </mxCell>
        <mxCell id="Nikil5k3IJ3DwkQnjK75-69" value="Correo" style="text;html=1;align=center;verticalAlign=middle;whiteSpace=wrap;rounded=0;" vertex="1" parent="1">
          <mxGeometry x="10" y="99" width="60" height="30" as="geometry" />
        </mxCell>
        <mxCell id="Nikil5k3IJ3DwkQnjK75-70" value="Password" style="text;html=1;align=center;verticalAlign=middle;whiteSpace=wrap;rounded=0;" vertex="1" parent="1">
          <mxGeometry x="10" y="125" width="60" height="30" as="geometry" />
        </mxCell>
        <mxCell id="Nikil5k3IJ3DwkQnjK75-71" value="Telefono" style="text;html=1;align=center;verticalAlign=middle;whiteSpace=wrap;rounded=0;" vertex="1" parent="1">
          <mxGeometry x="10" y="155" width="60" height="30" as="geometry" />
        </mxCell>
        <mxCell id="Nikil5k3IJ3DwkQnjK75-72" value="" style="endArrow=none;html=1;rounded=0;entryX=0;entryY=1;entryDx=0;entryDy=0;" edge="1" parent="1" target="Nikil5k3IJ3DwkQnjK75-3">
          <mxGeometry width="50" height="50" relative="1" as="geometry">
            <mxPoint x="-220" y="390" as="sourcePoint" />
            <mxPoint x="-230" y="390" as="targetPoint" />
          </mxGeometry>
        </mxCell>
        <mxCell id="Nikil5k3IJ3DwkQnjK75-73" value="Rol" style="text;html=1;align=center;verticalAlign=middle;whiteSpace=wrap;rounded=0;" vertex="1" parent="1">
          <mxGeometry x="-290" y="360" width="60" height="30" as="geometry" />
        </mxCell>
        <mxCell id="Nikil5k3IJ3DwkQnjK75-74" value="Descripcion" style="text;html=1;align=center;verticalAlign=middle;whiteSpace=wrap;rounded=0;" vertex="1" parent="1">
          <mxGeometry x="-290" y="330" width="60" height="30" as="geometry" />
        </mxCell>
        <mxCell id="Nikil5k3IJ3DwkQnjK75-75" value="" style="endArrow=none;html=1;rounded=0;entryX=0;entryY=1;entryDx=0;entryDy=0;" edge="1" parent="1" target="Nikil5k3IJ3DwkQnjK75-9">
          <mxGeometry width="50" height="50" relative="1" as="geometry">
            <mxPoint x="70" y="620" as="sourcePoint" />
            <mxPoint x="140" y="590" as="targetPoint" />
          </mxGeometry>
        </mxCell>
        <mxCell id="Nikil5k3IJ3DwkQnjK75-76" value="Precio" style="text;html=1;align=center;verticalAlign=middle;whiteSpace=wrap;rounded=0;" vertex="1" parent="1">
          <mxGeometry x="70" y="576" width="60" height="30" as="geometry" />
        </mxCell>
        <mxCell id="Nikil5k3IJ3DwkQnjK75-77" value="Descripcion" style="text;html=1;align=center;verticalAlign=middle;whiteSpace=wrap;rounded=0;" vertex="1" parent="1">
          <mxGeometry x="74" y="606" width="60" height="30" as="geometry" />
        </mxCell>
        <mxCell id="Nikil5k3IJ3DwkQnjK75-78" value="" style="endArrow=none;html=1;rounded=0;entryX=0;entryY=1;entryDx=0;entryDy=0;" edge="1" parent="1" target="Nikil5k3IJ3DwkQnjK75-26">
          <mxGeometry width="50" height="50" relative="1" as="geometry">
            <mxPoint x="70" y="940" as="sourcePoint" />
            <mxPoint x="70" y="690" as="targetPoint" />
          </mxGeometry>
        </mxCell>
        <mxCell id="Nikil5k3IJ3DwkQnjK75-79" value="IdRevision" style="text;html=1;align=center;verticalAlign=middle;whiteSpace=wrap;rounded=0;" vertex="1" parent="1">
          <mxGeometry x="74" y="682" width="60" height="30" as="geometry" />
        </mxCell>
        <mxCell id="Nikil5k3IJ3DwkQnjK75-80" value="IdTarifa" style="text;html=1;align=center;verticalAlign=middle;whiteSpace=wrap;rounded=0;" vertex="1" parent="1">
          <mxGeometry x="70" y="550" width="60" height="30" as="geometry" />
        </mxCell>
        <mxCell id="Nikil5k3IJ3DwkQnjK75-81" value="Fecha" style="text;html=1;align=center;verticalAlign=middle;whiteSpace=wrap;rounded=0;" vertex="1" parent="1">
          <mxGeometry x="74" y="703" width="60" height="28" as="geometry" />
        </mxCell>
        <mxCell id="Nikil5k3IJ3DwkQnjK75-82" value="Peso" style="text;html=1;align=center;verticalAlign=middle;whiteSpace=wrap;rounded=0;" vertex="1" parent="1">
          <mxGeometry x="74" y="731" width="60" height="28" as="geometry" />
        </mxCell>
        <mxCell id="Nikil5k3IJ3DwkQnjK75-83" value="Grasa" style="text;html=1;align=center;verticalAlign=middle;whiteSpace=wrap;rounded=0;" vertex="1" parent="1">
          <mxGeometry x="74" y="759" width="60" height="28" as="geometry" />
        </mxCell>
        <mxCell id="Nikil5k3IJ3DwkQnjK75-84" value="Musculo" style="text;html=1;align=center;verticalAlign=middle;whiteSpace=wrap;rounded=0;" vertex="1" parent="1">
          <mxGeometry x="74" y="787" width="60" height="28" as="geometry" />
        </mxCell>
        <mxCell id="Nikil5k3IJ3DwkQnjK75-85" value="M.Pecho" style="text;html=1;align=center;verticalAlign=middle;whiteSpace=wrap;rounded=0;" vertex="1" parent="1">
          <mxGeometry x="74" y="815" width="60" height="28" as="geometry" />
        </mxCell>
        <mxCell id="Nikil5k3IJ3DwkQnjK75-86" value="M.Cintura" style="text;html=1;align=center;verticalAlign=middle;whiteSpace=wrap;rounded=0;" vertex="1" parent="1">
          <mxGeometry x="74" y="843" width="60" height="28" as="geometry" />
        </mxCell>
        <mxCell id="Nikil5k3IJ3DwkQnjK75-87" value="M.Cadera" style="text;html=1;align=center;verticalAlign=middle;whiteSpace=wrap;rounded=0;" vertex="1" parent="1">
          <mxGeometry x="74" y="871" width="60" height="28" as="geometry" />
        </mxCell>
        <mxCell id="Nikil5k3IJ3DwkQnjK75-88" value="Observaciones" style="text;html=1;align=center;verticalAlign=middle;whiteSpace=wrap;rounded=0;" vertex="1" parent="1">
          <mxGeometry x="83" y="899" width="60" height="28" as="geometry" />
        </mxCell>
        <mxCell id="Nikil5k3IJ3DwkQnjK75-89" value="" style="endArrow=none;html=1;rounded=0;entryX=0;entryY=1;entryDx=0;entryDy=0;" edge="1" parent="1" target="Nikil5k3IJ3DwkQnjK75-38">
          <mxGeometry width="50" height="50" relative="1" as="geometry">
            <mxPoint x="70" y="1120" as="sourcePoint" />
            <mxPoint x="90" y="1070" as="targetPoint" />
          </mxGeometry>
        </mxCell>
        <mxCell id="Nikil5k3IJ3DwkQnjK75-90" value="IdDieta" style="text;html=1;align=center;verticalAlign=middle;whiteSpace=wrap;rounded=0;" vertex="1" parent="1">
          <mxGeometry x="70" y="1005" width="60" height="30" as="geometry" />
        </mxCell>
        <mxCell id="Nikil5k3IJ3DwkQnjK75-91" value="Nombre" style="text;html=1;align=center;verticalAlign=middle;whiteSpace=wrap;rounded=0;" vertex="1" parent="1">
          <mxGeometry x="74" y="1030" width="60" height="30" as="geometry" />
        </mxCell>
        <mxCell id="Nikil5k3IJ3DwkQnjK75-92" value="Imagen?" style="text;html=1;align=center;verticalAlign=middle;whiteSpace=wrap;rounded=0;" vertex="1" parent="1">
          <mxGeometry x="80" y="922" width="60" height="28" as="geometry" />
        </mxCell>
        <mxCell id="Nikil5k3IJ3DwkQnjK75-93" value="Descripcion" style="text;html=1;align=center;verticalAlign=middle;whiteSpace=wrap;rounded=0;" vertex="1" parent="1">
          <mxGeometry x="74" y="1060" width="60" height="30" as="geometry" />
        </mxCell>
        <mxCell id="Nikil5k3IJ3DwkQnjK75-94" value="Archivo?" style="text;html=1;align=center;verticalAlign=middle;whiteSpace=wrap;rounded=0;" vertex="1" parent="1">
          <mxGeometry x="74" y="1090" width="60" height="30" as="geometry" />
        </mxCell>
        <mxCell id="Nikil5k3IJ3DwkQnjK75-95" value="" style="endArrow=none;html=1;rounded=0;exitX=1;exitY=0;exitDx=0;exitDy=0;" edge="1" parent="1" source="Nikil5k3IJ3DwkQnjK75-11">
          <mxGeometry width="50" height="50" relative="1" as="geometry">
            <mxPoint x="770" y="160" as="sourcePoint" />
            <mxPoint x="720" y="30" as="targetPoint" />
          </mxGeometry>
        </mxCell>
        <mxCell id="Nikil5k3IJ3DwkQnjK75-96" value="IdRutina" style="text;html=1;align=center;verticalAlign=middle;whiteSpace=wrap;rounded=0;" vertex="1" parent="1">
          <mxGeometry x="720" y="9" width="60" height="30" as="geometry" />
        </mxCell>
        <mxCell id="Nikil5k3IJ3DwkQnjK75-97" value="Nombre" style="text;html=1;align=center;verticalAlign=middle;whiteSpace=wrap;rounded=0;" vertex="1" parent="1">
          <mxGeometry x="720" y="39" width="60" height="30" as="geometry" />
        </mxCell>
        <mxCell id="Nikil5k3IJ3DwkQnjK75-98" value="Descripcion" style="text;html=1;align=center;verticalAlign=middle;whiteSpace=wrap;rounded=0;" vertex="1" parent="1">
          <mxGeometry x="720" y="69" width="60" height="30" as="geometry" />
        </mxCell>
      </root>
    </mxGraphModel>
  </diagram>
</mxfile>
